<svg width="112" height="36" viewBox="0 0 112 36" fill="none" xmlns="http://www.w3.org/2000/svg">
<path d="M42.2666 17L43.9893 7.04688L46.6826 7.05371C47.512 7.05371 48.2253 7.26107 48.8223 7.67578C49.4238 8.08594 49.859 8.6556 50.1279 9.38477C50.3968 10.1094 50.4788 10.9092 50.374 11.7842L50.2988 12.3242C50.1621 13.2402 49.859 14.0537 49.3896 14.7646C48.9248 15.471 48.3232 16.0202 47.585 16.4121C46.8467 16.804 46.0355 17 45.1514 17H42.2666ZM45.4385 8.44141L44.1943 15.6191L45.1924 15.626C46.0947 15.626 46.8421 15.3411 47.4346 14.7715C48.0316 14.1973 48.4144 13.4066 48.583 12.3994C48.7015 11.7067 48.7448 11.1029 48.7129 10.5879C48.6719 9.92708 48.4782 9.40983 48.1318 9.03613C47.79 8.66243 47.3138 8.46647 46.7031 8.44824L45.4385 8.44141ZM54.4004 17.1367C53.7578 17.123 53.1995 16.9613 52.7256 16.6514C52.2562 16.3415 51.9076 15.9176 51.6797 15.3799C51.4564 14.8421 51.3721 14.2428 51.4268 13.582L51.4473 13.3018C51.5293 12.5498 51.748 11.8753 52.1035 11.2783C52.4635 10.6768 52.9102 10.221 53.4434 9.91113C53.9766 9.60124 54.5553 9.45312 55.1797 9.4668C56.1048 9.48503 56.7975 9.8291 57.2578 10.499C57.7227 11.1689 57.8981 12.0417 57.7842 13.1172L57.6885 13.8281H53.0332C52.9922 14.416 53.1107 14.89 53.3887 15.25C53.6667 15.61 54.0495 15.7946 54.5371 15.8037C55.2344 15.8265 55.877 15.5234 56.4648 14.8945L57.2852 15.7559C56.9753 16.1979 56.5674 16.542 56.0615 16.7881C55.5557 17.0296 55.002 17.1458 54.4004 17.1367ZM55.0908 10.793C54.234 10.7656 53.5915 11.3717 53.1631 12.6113L56.2324 12.6182L56.2598 12.4746C56.2917 12.265 56.2939 12.0599 56.2666 11.8594C56.2165 11.5358 56.0889 11.2806 55.8838 11.0938C55.6787 10.9069 55.4144 10.8066 55.0908 10.793ZM61.2227 14.874L63.5605 9.60352H65.29L61.6465 17H60.2383L58.8848 9.60352H60.5117L61.2227 14.874ZM69.5283 14.9492C69.6058 14.498 69.3118 14.1859 68.6465 14.0127C67.9857 13.835 67.5345 13.6937 67.293 13.5889C66.3542 13.1878 65.9007 12.5771 65.9326 11.7568C65.9554 11.0915 66.2562 10.5423 66.835 10.1094C67.4183 9.67188 68.1156 9.45768 68.9268 9.4668C69.7106 9.47591 70.3486 9.69694 70.8408 10.1299C71.3376 10.5628 71.5814 11.1302 71.5723 11.832L69.9658 11.8252C69.9749 11.4834 69.8815 11.2168 69.6855 11.0254C69.4896 10.8294 69.2207 10.7269 68.8789 10.7178C68.5189 10.7178 68.209 10.8066 67.9492 10.9844C67.694 11.1621 67.5459 11.3945 67.5049 11.6816C67.4411 12.0964 67.7327 12.3857 68.3799 12.5498C69.027 12.7093 69.5055 12.8574 69.8154 12.9941C70.7178 13.3906 71.153 14.0104 71.1211 14.8535C71.0983 15.3229 70.9434 15.7331 70.6562 16.084C70.3737 16.4303 69.9932 16.6969 69.5146 16.8838C69.0361 17.0661 68.528 17.1504 67.9902 17.1367C67.1836 17.1276 66.5137 16.8929 65.9805 16.4326C65.4518 15.9723 65.1921 15.3822 65.2012 14.6621L66.7666 14.6689C66.7757 15.0654 66.8942 15.3662 67.1221 15.5713C67.3499 15.7764 67.6621 15.8812 68.0586 15.8857C68.4596 15.8857 68.7923 15.8037 69.0566 15.6396C69.3255 15.471 69.4827 15.2409 69.5283 14.9492Z" fill="#FECA57"/>
<path d="M44.682 35C44.19 35 43.812 34.868 43.548 34.604C43.284 34.34 43.152 33.956 43.152 33.452V23.84C43.152 23.348 43.296 22.958 43.584 22.67C43.884 22.37 44.286 22.22 44.79 22.22C45.306 22.22 45.714 22.37 46.014 22.67C46.314 22.958 46.464 23.348 46.464 23.84V32.318H50.604C51.648 32.318 52.17 32.768 52.17 33.668C52.17 34.124 52.038 34.46 51.774 34.676C51.522 34.892 51.132 35 50.604 35H44.682ZM57.3588 25.928C58.7268 25.928 59.7348 26.258 60.3828 26.918C61.0428 27.566 61.3728 28.556 61.3728 29.888V33.65C61.3728 34.106 61.2348 34.466 60.9588 34.73C60.6948 34.982 60.3228 35.108 59.8428 35.108C59.4228 35.108 59.0748 34.988 58.7988 34.748C58.5348 34.508 58.3908 34.184 58.3668 33.776C58.1988 34.208 57.9168 34.544 57.5208 34.784C57.1248 35.024 56.6508 35.144 56.0988 35.144C55.4868 35.144 54.9348 35.024 54.4428 34.784C53.9508 34.532 53.5608 34.19 53.2728 33.758C52.9968 33.314 52.8588 32.816 52.8588 32.264C52.8588 31.628 53.0208 31.124 53.3448 30.752C53.6808 30.368 54.2088 30.092 54.9288 29.924C55.6488 29.756 56.6208 29.672 57.8448 29.672H58.3308V29.456C58.3308 29.036 58.2348 28.736 58.0428 28.556C57.8508 28.364 57.5268 28.268 57.0708 28.268C56.5788 28.268 55.8588 28.436 54.9108 28.772C54.6348 28.868 54.4008 28.916 54.2088 28.916C53.9088 28.916 53.6688 28.808 53.4888 28.592C53.3088 28.376 53.2188 28.094 53.2188 27.746C53.2188 27.482 53.2728 27.266 53.3808 27.098C53.4888 26.93 53.6628 26.78 53.9028 26.648C54.3228 26.432 54.8508 26.258 55.4868 26.126C56.1228 25.994 56.7468 25.928 57.3588 25.928ZM56.8548 33.002C57.2868 33.002 57.6408 32.852 57.9168 32.552C58.1928 32.24 58.3308 31.844 58.3308 31.364V31.148H58.0428C57.2748 31.148 56.7288 31.22 56.4048 31.364C56.0808 31.496 55.9188 31.724 55.9188 32.048C55.9188 32.324 56.0028 32.552 56.1708 32.732C56.3508 32.912 56.5788 33.002 56.8548 33.002ZM69.1264 25.928C70.1824 25.928 70.9684 26.246 71.4844 26.882C72.0004 27.506 72.2584 28.46 72.2584 29.744V33.632C72.2584 34.088 72.1144 34.448 71.8264 34.712C71.5384 34.976 71.1484 35.108 70.6564 35.108C70.1644 35.108 69.7744 34.976 69.4864 34.712C69.1984 34.448 69.0544 34.088 69.0544 33.632V29.888C69.0544 29.36 68.9584 28.976 68.7664 28.736C68.5864 28.496 68.3104 28.376 67.9384 28.376C67.4584 28.376 67.0744 28.532 66.7864 28.844C66.5104 29.144 66.3724 29.552 66.3724 30.068V33.632C66.3724 34.088 66.2284 34.448 65.9404 34.712C65.6524 34.976 65.2624 35.108 64.7704 35.108C64.2784 35.108 63.8884 34.976 63.6004 34.712C63.3124 34.448 63.1684 34.088 63.1684 33.632V27.404C63.1684 26.984 63.3184 26.642 63.6184 26.378C63.9184 26.102 64.3084 25.964 64.7884 25.964C65.2444 25.964 65.6044 26.09 65.8684 26.342C66.1444 26.594 66.2824 26.924 66.2824 27.332C66.5944 26.876 66.9964 26.528 67.4884 26.288C67.9804 26.048 68.5264 25.928 69.1264 25.928ZM78.3329 35.144C76.8929 35.144 75.7529 34.736 74.9129 33.92C74.0729 33.104 73.6529 31.994 73.6529 30.59C73.6529 29.666 73.8569 28.85 74.2649 28.142C74.6729 27.434 75.2429 26.888 75.9749 26.504C76.7189 26.12 77.5649 25.928 78.5129 25.928C79.0169 25.928 79.5209 25.994 80.0249 26.126C80.5289 26.258 80.9729 26.444 81.3569 26.684C81.7289 26.912 81.9149 27.26 81.9149 27.728C81.9149 28.1 81.8249 28.406 81.6449 28.646C81.4769 28.874 81.2549 28.988 80.9789 28.988C80.7989 28.988 80.6249 28.964 80.4569 28.916C80.2889 28.856 80.1029 28.772 79.8989 28.664C79.6589 28.556 79.4549 28.478 79.2869 28.43C79.1189 28.37 78.9329 28.34 78.7289 28.34C77.5409 28.34 76.9469 29.066 76.9469 30.518C76.9469 31.238 77.0969 31.79 77.3969 32.174C77.7089 32.546 78.1529 32.732 78.7289 32.732C78.9329 32.732 79.1189 32.708 79.2869 32.66C79.4669 32.6 79.6649 32.516 79.8809 32.408C80.1209 32.3 80.3129 32.222 80.4569 32.174C80.6129 32.114 80.7809 32.084 80.9609 32.084C81.2369 32.084 81.4589 32.204 81.6269 32.444C81.8069 32.672 81.8969 32.972 81.8969 33.344C81.8969 33.572 81.8489 33.782 81.7529 33.974C81.6569 34.154 81.5249 34.292 81.3569 34.388C80.5289 34.892 79.5209 35.144 78.3329 35.144ZM89.0969 25.928C90.1289 25.928 90.8969 26.246 91.4009 26.882C91.9049 27.506 92.1569 28.46 92.1569 29.744V33.632C92.1569 34.088 92.0129 34.448 91.7249 34.712C91.4369 34.976 91.0469 35.108 90.5549 35.108C90.0629 35.108 89.6729 34.976 89.3849 34.712C89.0969 34.448 88.9529 34.088 88.9529 33.632V29.672C88.9529 28.808 88.5809 28.376 87.8369 28.376C87.3569 28.376 86.9729 28.532 86.6849 28.844C86.4089 29.144 86.2709 29.552 86.2709 30.068V33.632C86.2709 34.088 86.1269 34.448 85.8389 34.712C85.5509 34.976 85.1609 35.108 84.6689 35.108C84.1769 35.108 83.7869 34.976 83.4989 34.712C83.2109 34.448 83.0669 34.088 83.0669 33.632V23.66C83.0669 23.24 83.2169 22.898 83.5169 22.634C83.8169 22.358 84.2129 22.22 84.7049 22.22C85.1729 22.22 85.5509 22.346 85.8389 22.598C86.1269 22.85 86.2709 23.186 86.2709 23.606V27.206C86.5949 26.786 86.9969 26.468 87.4769 26.252C87.9569 26.036 88.4969 25.928 89.0969 25.928ZM101.165 32.156C101.441 32.156 101.663 32.264 101.831 32.48C102.011 32.696 102.101 32.978 102.101 33.326C102.101 33.806 101.867 34.172 101.399 34.424C100.991 34.628 100.505 34.802 99.9413 34.946C99.3893 35.078 98.8793 35.144 98.4113 35.144C97.4273 35.144 96.5693 34.958 95.8373 34.586C95.1053 34.214 94.5413 33.68 94.1453 32.984C93.7493 32.288 93.5513 31.472 93.5513 30.536C93.5513 29.648 93.7373 28.856 94.1093 28.16C94.4933 27.452 95.0213 26.906 95.6933 26.522C96.3773 26.126 97.1453 25.928 97.9973 25.928C98.8253 25.928 99.5513 26.108 100.175 26.468C100.799 26.828 101.279 27.338 101.615 27.998C101.963 28.658 102.137 29.432 102.137 30.32C102.137 30.596 102.071 30.812 101.939 30.968C101.819 31.112 101.639 31.184 101.399 31.184H96.6473C96.7313 31.76 96.9173 32.174 97.2053 32.426C97.4933 32.678 97.9193 32.804 98.4833 32.804C98.7833 32.804 99.0593 32.774 99.3113 32.714C99.5633 32.642 99.8453 32.546 100.157 32.426C100.337 32.354 100.511 32.294 100.679 32.246C100.859 32.186 101.021 32.156 101.165 32.156ZM98.0873 28.088C97.6673 28.088 97.3313 28.226 97.0793 28.502C96.8273 28.766 96.6773 29.156 96.6293 29.672H99.4553C99.3833 28.616 98.9273 28.088 98.0873 28.088ZM107.09 35.144C106.286 35.144 105.608 35.084 105.056 34.964C104.504 34.844 104.018 34.652 103.598 34.388C103.43 34.304 103.298 34.16 103.202 33.956C103.106 33.752 103.058 33.524 103.058 33.272C103.058 32.948 103.142 32.684 103.31 32.48C103.49 32.264 103.712 32.156 103.976 32.156C104.156 32.156 104.324 32.18 104.48 32.228C104.636 32.264 104.828 32.33 105.056 32.426C105.44 32.558 105.776 32.66 106.064 32.732C106.364 32.804 106.742 32.84 107.198 32.84C107.522 32.84 107.774 32.798 107.954 32.714C108.146 32.618 108.242 32.486 108.242 32.318C108.242 32.186 108.194 32.084 108.098 32.012C108.014 31.94 107.846 31.874 107.594 31.814C107.342 31.742 106.916 31.646 106.316 31.526C105.248 31.322 104.474 31.016 103.994 30.608C103.526 30.188 103.292 29.6 103.292 28.844C103.292 28.292 103.46 27.794 103.796 27.35C104.144 26.906 104.618 26.558 105.218 26.306C105.818 26.054 106.49 25.928 107.234 25.928C107.774 25.928 108.296 25.994 108.8 26.126C109.316 26.258 109.772 26.444 110.168 26.684C110.54 26.9 110.726 27.248 110.726 27.728C110.726 28.064 110.636 28.346 110.456 28.574C110.276 28.802 110.054 28.916 109.79 28.916C109.478 28.916 109.106 28.814 108.674 28.61C108.386 28.478 108.128 28.382 107.9 28.322C107.684 28.25 107.426 28.214 107.126 28.214C106.826 28.214 106.592 28.262 106.424 28.358C106.256 28.442 106.172 28.568 106.172 28.736C106.172 28.928 106.286 29.078 106.514 29.186C106.754 29.294 107.222 29.414 107.918 29.546C109.082 29.75 109.904 30.062 110.384 30.482C110.864 30.89 111.104 31.484 111.104 32.264C111.104 33.14 110.738 33.842 110.006 34.37C109.286 34.886 108.314 35.144 107.09 35.144Z" fill="#AA2424"/>
<path d="M30.1092 21.254C30.1001 21.209 30.0867 21.1648 30.0691 21.1226C30.0516 21.0797 30.0298 21.0389 30.0045 21.0009C29.9784 20.9623 29.9497 20.9264 29.9166 20.894C29.8842 20.8617 29.8484 20.8322 29.8097 20.8069C29.7717 20.7815 29.7309 20.7598 29.6888 20.7422C29.6466 20.7246 29.6023 20.7112 29.5573 20.7021C29.4666 20.6838 29.373 20.6838 29.2823 20.7021C29.2373 20.7112 29.193 20.7246 29.1509 20.7422C29.1087 20.7598 29.0672 20.7815 29.0292 20.8069C28.9905 20.8322 28.9547 20.8617 28.9223 20.894C28.89 20.9264 28.8605 20.9623 28.8352 21.0009C28.8099 21.0389 28.788 21.0797 28.7705 21.1226C28.7529 21.1648 28.7396 21.209 28.7304 21.254C28.7212 21.299 28.7164 21.3455 28.7164 21.3912C28.7164 21.4369 28.7212 21.4833 28.7304 21.529C28.7396 21.5733 28.7529 21.6176 28.7705 21.6604C28.788 21.7026 28.8099 21.7434 28.8352 21.7814C28.8605 21.8201 28.89 21.8559 28.9223 21.8883C28.9547 21.9213 28.9905 21.9501 29.0292 21.9762C29.0672 22.0015 29.1087 22.0233 29.1509 22.0408C29.193 22.0584 29.2373 22.0718 29.2823 22.0809C29.3273 22.0901 29.3738 22.0943 29.4195 22.0943C29.4652 22.0943 29.5116 22.0901 29.5573 22.0809C29.6023 22.0718 29.6459 22.0584 29.6888 22.0408C29.7309 22.0233 29.7717 22.0015 29.8097 21.9762C29.8484 21.9501 29.8842 21.9213 29.9166 21.8883C29.9497 21.8559 29.9784 21.8201 30.0045 21.7814C30.0298 21.7434 30.0516 21.7026 30.0691 21.6604C30.0867 21.6176 30.1001 21.5733 30.1092 21.529C30.1184 21.4833 30.1233 21.4369 30.1233 21.3912C30.1233 21.3455 30.1184 21.299 30.1092 21.254Z" fill="#FECA57"/>
<path d="M11.3012 28.0941C11.2921 28.0491 11.2788 28.0048 11.2612 27.9626C11.2436 27.9197 11.2218 27.8789 11.1965 27.8409C11.1712 27.8023 11.1417 27.7664 11.1093 27.7341C11.077 27.7017 11.0404 27.6722 11.0025 27.6469C10.9644 27.6216 10.9236 27.5998 10.8808 27.5822C10.8386 27.5646 10.7943 27.5513 10.7493 27.5421C10.6586 27.5238 10.5651 27.5238 10.4744 27.5421C10.4301 27.5513 10.3858 27.5646 10.3429 27.5822C10.3008 27.5998 10.26 27.6216 10.222 27.6469C10.1834 27.6722 10.1475 27.7017 10.1151 27.7341C10.0828 27.7664 10.0533 27.8023 10.0272 27.8409C10.002 27.8789 9.98013 27.9197 9.96255 27.9626C9.94497 28.0048 9.93168 28.0491 9.92254 28.0941C9.91347 28.1391 9.90918 28.1855 9.90918 28.2312C9.90918 28.2776 9.9134 28.3233 9.92254 28.369C9.93168 28.4133 9.94497 28.4576 9.96255 28.5005C9.98013 28.5427 10.002 28.5834 10.0272 28.6214C10.0533 28.6601 10.0828 28.6959 10.1151 28.7283C10.1474 28.7606 10.1833 28.7902 10.222 28.8162C10.26 28.8415 10.3008 28.8633 10.3429 28.8809C10.3858 28.8984 10.4301 28.9118 10.4744 28.9209C10.5201 28.9301 10.5666 28.9343 10.6122 28.9343C10.7972 28.9343 10.9779 28.8598 11.1093 28.7283C11.1417 28.6959 11.1712 28.6601 11.1965 28.6214C11.2218 28.5834 11.2436 28.5427 11.2612 28.5005C11.2788 28.4576 11.2921 28.4133 11.3012 28.369C11.3104 28.3233 11.3153 28.2776 11.3153 28.2312C11.3153 28.1855 11.3104 28.1391 11.3012 28.0941Z" fill="#FECA57"/>
<path d="M36 25.6808C36 24.6412 35.4514 23.7273 34.6283 23.2135C34.3505 21.0881 33.3364 19.1309 31.7465 17.6678C30.0512 16.1076 27.8479 15.2483 25.5425 15.2483H19.9295L20.046 13.8603H20.4184C20.8067 13.8603 21.1215 13.5455 21.1215 13.1572V9.85453C21.1215 9.46619 20.8067 9.1514 20.4184 9.1514H19.1666L18.5956 6.8441C18.518 6.53029 18.2364 6.30986 17.9131 6.30986H11.3152V1.61728H14.034C14.4222 1.61728 14.7371 1.30249 14.7371 0.914154C14.7371 0.525818 14.4222 0.211029 14.034 0.211029H10.6121C10.2239 0.211029 9.909 0.525818 9.909 0.914154V6.30979H3.31109C2.98779 6.30979 2.70619 6.53022 2.62856 6.84403L2.05755 9.15133H0.703125C0.314789 9.15133 0 9.46612 0 9.85446V13.1571C0 13.5454 0.314789 13.8602 0.703125 13.8602H1.07557L2.85469 35.0708C2.88527 35.4351 3.1898 35.7152 3.55535 35.7152L28.3764 35.789C31.5004 35.789 34.1292 33.5316 34.6235 30.4851C35.0485 30.1395 35.3161 29.6122 35.3161 29.0401C35.3161 28.6209 35.1766 28.2337 34.9417 27.9224C35.5876 27.3888 36 26.5821 36 25.6808ZM34.3503 24.8624H19.1231L19.1803 24.1806H33.0936C33.6191 24.1806 34.0824 24.4522 34.3503 24.8624ZM21.2275 16.6545H21.725V17.6084C21.725 17.9968 22.0399 18.3116 22.4281 18.3116C22.8165 18.3116 23.1313 17.9968 23.1313 17.6084V16.6545H23.6288L25.3669 18.1426C25.4995 18.2561 25.662 18.3116 25.8239 18.3116C26.0222 18.3116 26.2192 18.2282 26.3584 18.0658C26.611 17.7709 26.5766 17.327 26.2815 17.0744L25.796 16.6587C29.348 16.7764 32.3831 19.3562 33.1257 22.7745C33.115 22.7744 33.1043 22.7743 33.0936 22.7743H19.2982L19.3552 22.0945H26.6944C27.0827 22.0945 27.3975 21.7797 27.3975 21.3913C27.3975 21.003 27.0827 20.6882 26.6944 20.6882H19.4732L19.702 17.9605L21.2275 16.6545ZM3.86142 7.71604H17.3627L17.7179 9.15133H3.5062L3.86142 7.71604ZM1.40625 10.5576H19.7153V12.454H1.40625V10.5576ZM9.909 23.1018V25.4994C9.909 25.8877 10.2238 26.2025 10.6121 26.2025C11.0004 26.2025 11.3152 25.8877 11.3152 25.4994V23.1018H15.4043L14.6968 31.5368H6.42466L5.71718 23.1018H9.909ZM5.5992 21.6955L5.17458 16.6324H9.909V21.6955H5.5992ZM11.3152 21.6955V16.6324H15.9469L15.5223 21.6955H11.3152ZM4.20195 34.3089L2.48674 13.8602H9.909V15.2262H4.41C4.21327 15.2262 4.0256 15.3086 3.8925 15.4534C3.75933 15.5981 3.69288 15.7921 3.70941 15.9881L5.07748 32.2988C5.10806 32.6631 5.41259 32.9431 5.77814 32.9431H15.3435C15.7091 32.9431 16.0136 32.6631 16.0442 32.2988L17.4123 15.9881C17.4287 15.7921 17.3623 15.5981 17.2292 15.4534C17.096 15.3086 16.9083 15.2262 16.7117 15.2262H11.3154V13.8602H18.6349L18.4646 15.8907C18.4646 15.8913 18.4645 15.8919 18.4644 15.8925L16.9196 34.3089H4.20195ZM28.3813 34.3828L18.3303 34.3142L18.5712 31.4419C18.867 31.5561 19.1014 31.7297 19.37 31.9286C19.9147 32.332 20.5926 32.8341 21.8606 32.8341H21.8706C23.1387 32.8341 23.8166 32.332 24.3612 31.9286C24.8544 31.5634 25.2107 31.2994 26.0146 31.2994C26.8185 31.2994 27.1747 31.5633 27.6679 31.9286C28.2125 32.332 28.8903 32.834 30.1582 32.834C31.3504 32.834 32.1448 32.1371 32.7831 31.5772C32.8071 31.5561 32.831 31.5352 32.8549 31.5144C32.074 33.2218 30.3535 34.3828 28.3813 34.3828ZM33.5857 29.4741C33.5856 29.4741 33.5856 29.4741 33.5857 29.4741C33.5835 29.4747 33.5814 29.4753 33.5793 29.4759C33.5772 29.4764 33.5753 29.477 33.5732 29.4775C33.5717 29.4779 33.5701 29.4783 33.5685 29.4787C33.5647 29.4796 33.561 29.4805 33.5571 29.4813C33.4707 29.5004 33.3871 29.5241 33.306 29.5518C32.748 29.7426 32.3062 30.1247 31.8788 30.4995C31.871 30.5064 31.8633 30.5132 31.8556 30.52C31.3004 31.0071 30.8208 31.4277 30.1579 31.4277C29.3541 31.4277 28.9979 31.1638 28.5047 30.7986C27.9601 30.3952 27.2823 29.8932 26.0144 29.8932C24.7465 29.8932 24.0687 30.3952 23.5241 30.7985C23.0309 31.1638 22.6745 31.4277 21.8704 31.4277H21.8604C21.0563 31.4277 20.7 31.1638 20.2068 30.7985C19.8243 30.5154 19.3709 30.1795 18.6913 30.0075L18.8104 28.5873H33.4571C33.7068 28.5873 33.9098 28.7904 33.9098 29.0401C33.9098 29.2409 33.7752 29.4189 33.5857 29.4741ZM33.0936 27.181H18.9286L19.0051 26.2686H34.4737C34.2446 26.8045 33.7122 27.181 33.0936 27.181Z" fill="#FECA57"/>
</svg>
